# xmcd
#
# Track frame offsets: 
#        183
#        12920
#        25770
#        40295
#        50395
#        64895
#        88145
#        107120
#        119645
#        132545
#        143345
#        156395
#
# Disc length: 2282 seconds
#
# Revision: 7
# Processed by: cddbd v1.5.2PL0 Copyright (c) Steve Scherf et al.
# Submitted via: ExactAudioCopy v1.0b3
#
DISCID=a708e80c
DTITLE=J. J. Cale - 5
DYEAR=1979
DGENRE=Pop
TTITLE0=Thirteen Days
TTITLE1=Boilin' Pot
TTITLE2=I'll Make Love To You
TTITLE3=Don't Cry Sister
TTITLE4=Too Much For Me
TTITLE5=Sensitive Kind
TTITLE6=Friday
TTITLE7=Lou-Easy-Ann
TTITLE8=Let's Go To Tahiti
TTITLE9=Out Of Style
TTITLE10=Fate Of A Fool
TTITLE11=Mona
EXTD=YEAR: 1979
EXTT0=
EXTT1=
EXTT2=
EXTT3=
EXTT4=
EXTT5=
EXTT6=
EXTT7=
EXTT8=
EXTT9=
EXTT10=
EXTT11=
PLAYORDER=
